<svg xmlns="http://www.w3.org/2000/svg" viewBox="0 0 480 640">
<defs>
  <!-- Ranglar -->
  <linearGradient id="cl_frame" x1="0%" y1="0%" x2="100%" y2="0%">
    <stop offset="0%"   stop-color="#040810"/>
    <stop offset="25%"  stop-color="#0c1828"/>
    <stop offset="55%"  stop-color="#121e30"/>
    <stop offset="80%"  stop-color="#0c1828"/>
    <stop offset="100%" stop-color="#040810"/>
  </linearGradient>
  <linearGradient id="cl_rolik_work" x1="0%" y1="0%" x2="100%" y2="0%">
    <stop offset="0%"   stop-color="#050a12"/>
    <stop offset="20%"  stop-color="#0e2030"/>
    <stop offset="45%"  stop-color="#183040"/>
    <stop offset="65%"  stop-color="#1e3848"/>
    <stop offset="85%"  stop-color="#0e2030"/>
    <stop offset="100%" stop-color="#050a12"/>
  </linearGradient>
  <linearGradient id="cl_rolik_back" x1="0%" y1="0%" x2="100%" y2="0%">
    <stop offset="0%"   stop-color="#040810"/>
    <stop offset="22%"  stop-color="#0a1828"/>
    <stop offset="50%"  stop-color="#142030"/>
    <stop offset="78%"  stop-color="#0a1828"/>
    <stop offset="100%" stop-color="#040810"/>
  </linearGradient>
  <!-- Sovuq metall tasma — kumush/kulrang (issiq emas) -->
  <linearGradient id="cl_band" x1="0%" y1="0%" x2="0%" y2="100%">
    <stop offset="0%"   stop-color="#3a4858"/>
    <stop offset="25%"  stop-color="#5a7088"/>
    <stop offset="50%"  stop-color="#7090a8"/>
    <stop offset="75%"  stop-color="#5a7088"/>
    <stop offset="100%" stop-color="#3a4858"/>
  </linearGradient>
  <!-- Yupqa tasma highlight (ingichka = ko'proq yorug'lik) -->
  <linearGradient id="cl_band_shine" x1="0%" y1="0%" x2="0%" y2="100%">
    <stop offset="0%"   stop-color="#ffffff" stop-opacity="0.12"/>
    <stop offset="50%"  stop-color="#ffffff" stop-opacity="0.28"/>
    <stop offset="100%" stop-color="#ffffff" stop-opacity="0.08"/>
  </linearGradient>
  <linearGradient id="cl_press" x1="0%" y1="0%" x2="0%" y2="100%">
    <stop offset="0%"   stop-color="#0e1828"/>
    <stop offset="50%"  stop-color="#162438"/>
    <stop offset="100%" stop-color="#0a1220"/>
  </linearGradient>
  <linearGradient id="cl_motor" x1="0%" y1="0%" x2="100%" y2="0%">
    <stop offset="0%"   stop-color="#060810"/>
    <stop offset="40%"  stop-color="#0e1422"/>
    <stop offset="60%"  stop-color="#121828"/>
    <stop offset="100%" stop-color="#060810"/>
  </linearGradient>
  <linearGradient id="cl_screw" x1="0%" y1="0%" x2="100%" y2="0%">
    <stop offset="0%"   stop-color="#0a1828"/>
    <stop offset="40%"  stop-color="#1e3448"/>
    <stop offset="60%"  stop-color="#243e54"/>
    <stop offset="100%" stop-color="#0a1828"/>
  </linearGradient>
  <!-- Yog'lash moyi (sariq-yashil) -->
  <radialGradient id="cl_oil_drop" cx="50%" cy="30%" r="60%">
    <stop offset="0%"   stop-color="#aacc00" stop-opacity="0.5"/>
    <stop offset="100%" stop-color="#448800" stop-opacity="0"/>
  </radialGradient>

  <filter id="cl_glow3"><feGaussianBlur stdDeviation="3" result="b"/><feMerge><feMergeNode in="b"/><feMergeNode in="SourceGraphic"/></feMerge></filter>
  <filter id="cl_glow6"><feGaussianBlur stdDeviation="6" result="b"/><feMerge><feMergeNode in="b"/><feMergeNode in="SourceGraphic"/></feMerge></filter>
  <filter id="cl_blur2"><feGaussianBlur stdDeviation="2"/></filter>
  <filter id="cl_blur4"><feGaussianBlur stdDeviation="4"/></filter>
</defs>

<rect width="480" height="640" fill="#04060c"/>

<!-- ============================================================
     VINTLI PRESSLASH TIZIMI (yuqori) — ingichkaga xos
     ============================================================ -->
<!-- Asosiy tepa balka (mashhur "housing" ustunlari) -->
<rect x="30" y="24" width="420" height="52" rx="4"
  fill="url(#cl_press)" stroke="#121e30" stroke-width="2"/>

<!-- 4 ta vintli vint mexanizmi (ingichka listda aniqroq bosim) -->
<!-- Vint 1 (chap) -->
<g>
  <rect x="58" y="18" width="36" height="62" rx="6"
    fill="url(#cl_screw)" stroke="#1e3448" stroke-width="1.8"/>
  <rect x="63" y="22" width="26" height="54" rx="4"
    fill="#081828" stroke="#142030" stroke-width="1"/>
  <!-- Vintning spiral chiziqlar -->
  <g stroke="#1e3040" stroke-width="1" opacity="0.6">
    <line x1="63" y1="30" x2="89" y2="30"/>
    <line x1="63" y1="37" x2="89" y2="37"/>
    <line x1="63" y1="44" x2="89" y2="44"/>
    <line x1="63" y1="51" x2="89" y2="51"/>
    <line x1="63" y1="58" x2="89" y2="58"/>
    <line x1="63" y1="65" x2="89" y2="65"/>
  </g>
  <!-- Vint boshi -->
  <rect x="52" y="14" width="48" height="12" rx="4"
    fill="#0e1e2e" stroke="#1e2e40" stroke-width="1.5"/>
  <circle cx="76" cy="20" r="14" fill="#0a1828" stroke="#182838" stroke-width="1.5"/>
  <circle cx="76" cy="20" r="10" fill="#061220" stroke="#102030" stroke-width="1.2">
    <animateTransform attributeName="transform" type="rotate" from="0 76 20" to="360 76 20" dur="4s" repeatCount="indefinite"/>
  </circle>
  <g stroke="#1e3040" stroke-width="1" fill="none">
    <line x1="76" y1="10" x2="76" y2="30"/>
    <line x1="66" y1="20" x2="86" y2="20"/>
  </g>
</g>
<!-- Vint 2 -->
<g>
  <rect x="158" y="18" width="36" height="62" rx="6"
    fill="url(#cl_screw)" stroke="#1e3448" stroke-width="1.8"/>
  <rect x="163" y="22" width="26" height="54" rx="4"
    fill="#081828" stroke="#142030" stroke-width="1"/>
  <g stroke="#1e3040" stroke-width="1" opacity="0.6">
    <line x1="163" y1="30" x2="189" y2="30"/><line x1="163" y1="37" x2="189" y2="37"/>
    <line x1="163" y1="44" x2="189" y2="44"/><line x1="163" y1="51" x2="189" y2="51"/>
    <line x1="163" y1="58" x2="189" y2="58"/><line x1="163" y1="65" x2="189" y2="65"/>
  </g>
  <rect x="152" y="14" width="48" height="12" rx="4" fill="#0e1e2e" stroke="#1e2e40" stroke-width="1.5"/>
  <circle cx="176" cy="20" r="14" fill="#0a1828" stroke="#182838" stroke-width="1.5"/>
  <circle cx="176" cy="20" r="10" fill="#061220" stroke="#102030" stroke-width="1.2">
    <animateTransform attributeName="transform" type="rotate" from="0 176 20" to="360 176 20" dur="4s" repeatCount="indefinite"/>
  </circle>
  <g stroke="#1e3040" stroke-width="1" fill="none">
    <line x1="176" y1="10" x2="176" y2="30"/>
    <line x1="166" y1="20" x2="186" y2="20"/>
  </g>
</g>
<!-- Vint 3 -->
<g>
  <rect x="286" y="18" width="36" height="62" rx="6"
    fill="url(#cl_screw)" stroke="#1e3448" stroke-width="1.8"/>
  <rect x="291" y="22" width="26" height="54" rx="4"
    fill="#081828" stroke="#142030" stroke-width="1"/>
  <g stroke="#1e3040" stroke-width="1" opacity="0.6">
    <line x1="291" y1="30" x2="317" y2="30"/><line x1="291" y1="37" x2="317" y2="37"/>
    <line x1="291" y1="44" x2="317" y2="44"/><line x1="291" y1="51" x2="317" y2="51"/>
    <line x1="291" y1="58" x2="317" y2="58"/><line x1="291" y1="65" x2="317" y2="65"/>
  </g>
  <rect x="280" y="14" width="48" height="12" rx="4" fill="#0e1e2e" stroke="#1e2e40" stroke-width="1.5"/>
  <circle cx="304" cy="20" r="14" fill="#0a1828" stroke="#182838" stroke-width="1.5"/>
  <circle cx="304" cy="20" r="10" fill="#061220" stroke="#102030" stroke-width="1.2">
    <animateTransform attributeName="transform" type="rotate" from="0 304 20" to="360 304 20" dur="4s" repeatCount="indefinite"/>
  </circle>
  <g stroke="#1e3040" stroke-width="1" fill="none">
    <line x1="304" y1="10" x2="304" y2="30"/>
    <line x1="294" y1="20" x2="314" y2="20"/>
  </g>
</g>
<!-- Vint 4 (o'ng) -->
<g>
  <rect x="386" y="18" width="36" height="62" rx="6"
    fill="url(#cl_screw)" stroke="#1e3448" stroke-width="1.8"/>
  <rect x="391" y="22" width="26" height="54" rx="4"
    fill="#081828" stroke="#142030" stroke-width="1"/>
  <g stroke="#1e3040" stroke-width="1" opacity="0.6">
    <line x1="391" y1="30" x2="417" y2="30"/><line x1="391" y1="37" x2="417" y2="37"/>
    <line x1="391" y1="44" x2="417" y2="44"/><line x1="391" y1="51" x2="417" y2="51"/>
    <line x1="391" y1="58" x2="417" y2="58"/><line x1="391" y1="65" x2="417" y2="65"/>
  </g>
  <rect x="380" y="14" width="48" height="12" rx="4" fill="#0e1e2e" stroke="#1e2e40" stroke-width="1.5"/>
  <circle cx="404" cy="20" r="14" fill="#0a1828" stroke="#182838" stroke-width="1.5"/>
  <circle cx="404" cy="20" r="10" fill="#061220" stroke="#102030" stroke-width="1.2">
    <animateTransform attributeName="transform" type="rotate" from="0 404 20" to="360 404 20" dur="4s" repeatCount="indefinite"/>
  </circle>
  <g stroke="#1e3040" stroke-width="1" fill="none">
    <line x1="404" y1="10" x2="404" y2="30"/>
    <line x1="394" y1="20" x2="414" y2="20"/>
  </g>
</g>
<!-- Vint elektr motor (tepa orqa) -->
<rect x="30" y="24" width="420" height="14" rx="3"
  fill="#0a1828" stroke="#162030" stroke-width="1.5"/>
<g fill="#162030" stroke="#243848" stroke-width="1">
  <rect x="38"  y="26" width="38" height="10" rx="2"/>
  <rect x="138" y="26" width="38" height="10" rx="2"/>
  <rect x="266" y="26" width="38" height="10" rx="2"/>
  <rect x="366" y="26" width="38" height="10" rx="2"/>
</g>

<!-- ============================================================
     USTKI TAYANCH ROLIK (backup roll — katta diametr)
     ============================================================ -->
<rect x="16" y="76" width="448" height="66" rx="33"
  fill="url(#cl_rolik_back)" stroke="#0e1e2e" stroke-width="2.5"/>
<rect x="20" y="80" width="440" height="58" rx="29"
  fill="#060e18" opacity="0.6"/>
<!-- Backup rolik sirt chiziqlar -->
<rect x="16" y="79" width="448" height="5" rx="2" fill="#152030" opacity="0.5"/>
<rect x="16" y="138" width="448" height="4" rx="2" fill="#0e1828" opacity="0.5"/>
<!-- Rolik disklar -->
<g fill="#050c14" stroke="#0e2030" stroke-width="1.5">
  <circle cx="54"  cy="109" r="26"/>
  <circle cx="116" cy="109" r="26"/>
  <circle cx="180" cy="109" r="26"/>
  <circle cx="240" cy="109" r="26"/>
  <circle cx="300" cy="109" r="26"/>
  <circle cx="364" cy="109" r="26"/>
  <circle cx="426" cy="109" r="26"/>
</g>
<g fill="none" stroke="#1a2e40" stroke-width="1.2">
  <circle cx="54"  cy="109" r="17"/>
  <circle cx="116" cy="109" r="17"/>
  <circle cx="180" cy="109" r="17"/>
  <circle cx="240" cy="109" r="17"/>
  <circle cx="300" cy="109" r="17"/>
  <circle cx="364" cy="109" r="17"/>
  <circle cx="426" cy="109" r="17"/>
</g>
<!-- Markaz vallar -->
<g fill="#0a1828" stroke="#162838" stroke-width="1">
  <circle cx="54"  cy="109" r="8"/>
  <circle cx="116" cy="109" r="8"/>
  <circle cx="180" cy="109" r="8"/>
  <circle cx="240" cy="109" r="8"/>
  <circle cx="300" cy="109" r="8"/>
  <circle cx="364" cy="109" r="8"/>
  <circle cx="426" cy="109" r="8"/>
</g>

<!-- ============================================================
     USTKI KICHIK ISHCHI ROLIK (kichik diametr — ingichkaga xos)
     ============================================================ -->
<rect x="20" y="142" width="440" height="34" rx="17"
  fill="url(#cl_rolik_work)" stroke="#1a3040" stroke-width="2.2"/>
<rect x="24" y="146" width="432" height="26" rx="13"
  fill="#060e18" opacity="0.5"/>
<!-- Ishchi rolik sirt — yupqa -->
<rect x="20" y="144" width="440" height="4" rx="2" fill="#1a3040" opacity="0.6"/>
<!-- Disklar (kichikroq) -->
<g fill="#04080f" stroke="#162838" stroke-width="1.8">
  <ellipse cx="54"  cy="159" rx="14" ry="17">
    <animateTransform attributeName="transform" type="rotate" from="0 54 159" to="360 54 159" dur="0.9s" repeatCount="indefinite"/>
  </ellipse>
  <ellipse cx="108" cy="159" rx="14" ry="17">
    <animateTransform attributeName="transform" type="rotate" from="0 108 159" to="360 108 159" dur="0.9s" repeatCount="indefinite"/>
  </ellipse>
  <ellipse cx="162" cy="159" rx="14" ry="17">
    <animateTransform attributeName="transform" type="rotate" from="0 162 159" to="360 162 159" dur="0.9s" repeatCount="indefinite"/>
  </ellipse>
  <ellipse cx="216" cy="159" rx="14" ry="17">
    <animateTransform attributeName="transform" type="rotate" from="0 216 159" to="360 216 159" dur="0.9s" repeatCount="indefinite"/>
  </ellipse>
  <ellipse cx="240" cy="159" rx="14" ry="17">
    <animateTransform attributeName="transform" type="rotate" from="0 240 159" to="360 240 159" dur="0.9s" repeatCount="indefinite"/>
  </ellipse>
  <ellipse cx="264" cy="159" rx="14" ry="17">
    <animateTransform attributeName="transform" type="rotate" from="0 264 159" to="360 264 159" dur="0.9s" repeatCount="indefinite"/>
  </ellipse>
  <ellipse cx="318" cy="159" rx="14" ry="17">
    <animateTransform attributeName="transform" type="rotate" from="0 318 159" to="360 318 159" dur="0.9s" repeatCount="indefinite"/>
  </ellipse>
  <ellipse cx="372" cy="159" rx="14" ry="17">
    <animateTransform attributeName="transform" type="rotate" from="0 372 159" to="360 372 159" dur="0.9s" repeatCount="indefinite"/>
  </ellipse>
  <ellipse cx="426" cy="159" rx="14" ry="17">
    <animateTransform attributeName="transform" type="rotate" from="0 426 159" to="360 426 159" dur="0.9s" repeatCount="indefinite"/>
  </ellipse>
</g>

<!-- ============================================================
     YOG'LASH TIZIMI — ingichka listga xos (emulsion purkovchi)
     ============================================================ -->
<!-- Yog' kollektori (ustki) -->
<rect x="20" y="175" width="440" height="10" rx="4"
  fill="#0a1828" stroke="#162030" stroke-width="1.2"/>
<!-- Purkovchi teshiklar -->
<g fill="#1e4060" stroke="#2a5070" stroke-width="0.8">
  <circle cx="50"  cy="180" r="2.5"/>
  <circle cx="80"  cy="180" r="2.5"/>
  <circle cx="110" cy="180" r="2.5"/>
  <circle cx="140" cy="180" r="2.5"/>
  <circle cx="170" cy="180" r="2.5"/>
  <circle cx="200" cy="180" r="2.5"/>
  <circle cx="230" cy="180" r="2.5"/>
  <circle cx="260" cy="180" r="2.5"/>
  <circle cx="290" cy="180" r="2.5"/>
  <circle cx="320" cy="180" r="2.5"/>
  <circle cx="350" cy="180" r="2.5"/>
  <circle cx="380" cy="180" r="2.5"/>
  <circle cx="410" cy="180" r="2.5"/>
  <circle cx="440" cy="180" r="2.5"/>
</g>
<!-- Emulsiya tomchilari (animatsiya) -->
<g fill="#224466" opacity="0.6" filter="url(#cl_blur2)">
  <ellipse cx="80"  cy="186" rx="1.5" ry="3">
    <animate attributeName="cy" values="182;196;182" dur="0.8s" repeatCount="indefinite"/>
    <animate attributeName="opacity" values="0.6;0;0.6" dur="0.8s" repeatCount="indefinite"/>
  </ellipse>
  <ellipse cx="140" cy="186" rx="1.5" ry="3">
    <animate attributeName="cy" values="182;196;182" dur="0.7s" begin="0.15s" repeatCount="indefinite"/>
    <animate attributeName="opacity" values="0.6;0;0.6" dur="0.7s" begin="0.15s" repeatCount="indefinite"/>
  </ellipse>
  <ellipse cx="200" cy="186" rx="1.5" ry="3">
    <animate attributeName="cy" values="182;196;182" dur="0.85s" begin="0.3s" repeatCount="indefinite"/>
    <animate attributeName="opacity" values="0.6;0;0.6" dur="0.85s" begin="0.3s" repeatCount="indefinite"/>
  </ellipse>
  <ellipse cx="260" cy="186" rx="1.5" ry="3">
    <animate attributeName="cy" values="182;196;182" dur="0.75s" begin="0.1s" repeatCount="indefinite"/>
    <animate attributeName="opacity" values="0.6;0;0.6" dur="0.75s" begin="0.1s" repeatCount="indefinite"/>
  </ellipse>
  <ellipse cx="320" cy="186" rx="1.5" ry="3">
    <animate attributeName="cy" values="182;196;182" dur="0.9s" begin="0.4s" repeatCount="indefinite"/>
    <animate attributeName="opacity" values="0.6;0;0.6" dur="0.9s" begin="0.4s" repeatCount="indefinite"/>
  </ellipse>
  <ellipse cx="380" cy="186" rx="1.5" ry="3">
    <animate attributeName="cy" values="182;196;182" dur="0.8s" begin="0.2s" repeatCount="indefinite"/>
    <animate attributeName="opacity" values="0.6;0;0.6" dur="0.8s" begin="0.2s" repeatCount="indefinite"/>
  </ellipse>
  <ellipse cx="440" cy="186" rx="1.5" ry="3">
    <animate attributeName="cy" values="182;196;182" dur="0.72s" begin="0.35s" repeatCount="indefinite"/>
    <animate attributeName="opacity" values="0.6;0;0.6" dur="0.72s" begin="0.35s" repeatCount="indefinite"/>
  </ellipse>
</g>

<!-- ============================================================
     INGICHKA METALL TASMA (sovuq, kumush rang)
     ============================================================ -->
<!-- Kirish tasma (chap) -->
<rect x="0"   y="194" width="28" height="8" fill="url(#cl_band)"/>
<!-- Asosiy tasma (juda yupqa — 8px) -->
<rect x="0"   y="194" width="480" height="8" fill="url(#cl_band)"/>
<!-- Yuzasi yorug'ligi (ingichka metallning xarakter ko'zgusimonligi) -->
<rect x="0"   y="194" width="480" height="8" fill="url(#cl_band_shine)"/>
<!-- Harakatlanuvchi highlight (tezroq — ingichka list tezroq harakatlanadi) -->
<rect x="-60" y="194" width="40" height="8" fill="#ffffff" opacity="0.14">
  <animate attributeName="x" values="-60;520" dur="0.8s" repeatCount="indefinite"/>
</rect>
<rect x="-120" y="194" width="30" height="8" fill="#ffffff" opacity="0.08">
  <animate attributeName="x" values="-120;520" dur="0.8s" begin="0.25s" repeatCount="indefinite"/>
</rect>
<!-- Tasma chetlari (ingichka list chetlari aniq) -->
<line x1="0" y1="194" x2="480" y2="194" stroke="#6080a0" stroke-width="1" opacity="0.6"/>
<line x1="0" y1="202" x2="480" y2="202" stroke="#4060808" stroke-width="1" opacity="0.5"/>

<!-- ============================================================
     PASTKI KICHIK ISHCHI ROLIK
     ============================================================ -->
<rect x="20" y="202" width="440" height="34" rx="17"
  fill="url(#cl_rolik_work)" stroke="#1a3040" stroke-width="2.2"/>
<rect x="24" y="206" width="432" height="26" rx="13"
  fill="#060e18" opacity="0.5"/>
<rect x="20" y="232" width="440" height="4" rx="2" fill="#0e1828" opacity="0.6"/>
<!-- Disklar -->
<g fill="#04080f" stroke="#162838" stroke-width="1.8">
  <ellipse cx="54"  cy="219" rx="14" ry="17">
    <animateTransform attributeName="transform" type="rotate" from="0 54 219" to="-360 54 219" dur="0.9s" repeatCount="indefinite"/>
  </ellipse>
  <ellipse cx="108" cy="219" rx="14" ry="17">
    <animateTransform attributeName="transform" type="rotate" from="0 108 219" to="-360 108 219" dur="0.9s" repeatCount="indefinite"/>
  </ellipse>
  <ellipse cx="162" cy="219" rx="14" ry="17">
    <animateTransform attributeName="transform" type="rotate" from="0 162 219" to="-360 162 219" dur="0.9s" repeatCount="indefinite"/>
  </ellipse>
  <ellipse cx="216" cy="219" rx="14" ry="17">
    <animateTransform attributeName="transform" type="rotate" from="0 216 219" to="-360 216 219" dur="0.9s" repeatCount="indefinite"/>
  </ellipse>
  <ellipse cx="240" cy="219" rx="14" ry="17">
    <animateTransform attributeName="transform" type="rotate" from="0 240 219" to="-360 240 219" dur="0.9s" repeatCount="indefinite"/>
  </ellipse>
  <ellipse cx="264" cy="219" rx="14" ry="17">
    <animateTransform attributeName="transform" type="rotate" from="0 264 219" to="-360 264 219" dur="0.9s" repeatCount="indefinite"/>
  </ellipse>
  <ellipse cx="318" cy="219" rx="14" ry="17">
    <animateTransform attributeName="transform" type="rotate" from="0 318 219" to="-360 318 219" dur="0.9s" repeatCount="indefinite"/>
  </ellipse>
  <ellipse cx="372" cy="219" rx="14" ry="17">
    <animateTransform attributeName="transform" type="rotate" from="0 372 219" to="-360 372 219" dur="0.9s" repeatCount="indefinite"/>
  </ellipse>
  <ellipse cx="426" cy="219" rx="14" ry="17">
    <animateTransform attributeName="transform" type="rotate" from="0 426 219" to="-360 426 219" dur="0.9s" repeatCount="indefinite"/>
  </ellipse>
</g>

<!-- ============================================================
     PASTKI YOG'LASH KOLLEKTORI
     ============================================================ -->
<rect x="20" y="235" width="440" height="10" rx="4"
  fill="#0a1828" stroke="#162030" stroke-width="1.2"/>
<g fill="#1e4060" stroke="#2a5070" stroke-width="0.8">
  <circle cx="50"  cy="240" r="2.5"/> <circle cx="80"  cy="240" r="2.5"/>
  <circle cx="110" cy="240" r="2.5"/> <circle cx="140" cy="240" r="2.5"/>
  <circle cx="170" cy="240" r="2.5"/> <circle cx="200" cy="240" r="2.5"/>
  <circle cx="230" cy="240" r="2.5"/> <circle cx="260" cy="240" r="2.5"/>
  <circle cx="290" cy="240" r="2.5"/> <circle cx="320" cy="240" r="2.5"/>
  <circle cx="350" cy="240" r="2.5"/> <circle cx="380" cy="240" r="2.5"/>
  <circle cx="410" cy="240" r="2.5"/> <circle cx="440" cy="240" r="2.5"/>
</g>

<!-- ============================================================
     PASTKI TAYANCH ROLIK (backup roll)
     ============================================================ -->
<rect x="16" y="244" width="448" height="66" rx="33"
  fill="url(#cl_rolik_back)" stroke="#0e1e2e" stroke-width="2.5"/>
<rect x="20" y="248" width="440" height="58" rx="29"
  fill="#060e18" opacity="0.6"/>
<rect x="16" y="305" width="448" height="5" rx="2" fill="#0e1828" opacity="0.5"/>
<g fill="#050c14" stroke="#0e2030" stroke-width="1.5">
  <circle cx="54"  cy="277" r="26"/>
  <circle cx="116" cy="277" r="26"/>
  <circle cx="180" cy="277" r="26"/>
  <circle cx="240" cy="277" r="26"/>
  <circle cx="300" cy="277" r="26"/>
  <circle cx="364" cy="277" r="26"/>
  <circle cx="426" cy="277" r="26"/>
</g>
<g fill="none" stroke="#1a2e40" stroke-width="1.2">
  <circle cx="54"  cy="277" r="17"/>
  <circle cx="116" cy="277" r="17"/>
  <circle cx="180" cy="277" r="17"/>
  <circle cx="240" cy="277" r="17"/>
  <circle cx="300" cy="277" r="17"/>
  <circle cx="364" cy="277" r="17"/>
  <circle cx="426" cy="277" r="17"/>
</g>
<g fill="#0a1828" stroke="#162838" stroke-width="1">
  <circle cx="54"  cy="277" r="8"/>
  <circle cx="116" cy="277" r="8"/>
  <circle cx="180" cy="277" r="8"/>
  <circle cx="240" cy="277" r="8"/>
  <circle cx="300" cy="277" r="8"/>
  <circle cx="364" cy="277" r="8"/>
  <circle cx="426" cy="277" r="8"/>
</g>

<!-- ============================================================
     ASOSIY HOUSING (rame ustunlari)
     ============================================================ -->
<!-- Chap ustun (oyna tirqishi) -->
<rect x="6"   y="76" width="30" height="234" rx="4"
  fill="url(#cl_frame)" stroke="#0c1828" stroke-width="2.2"/>
<g stroke="#121e2e" stroke-width="1.5" opacity="0.55">
  <line x1="6"  y1="110" x2="36" y2="150"/> <line x1="36" y1="110" x2="6"  y2="150"/>
  <line x1="6"  y1="165" x2="36" y2="205"/> <line x1="36" y1="165" x2="6"  y2="205"/>
  <line x1="6"  y1="222" x2="36" y2="262"/> <line x1="36" y1="222" x2="6"  y2="262"/>
  <line x1="6"  y1="278" x2="36" y2="310"/> <line x1="36" y1="278" x2="6"  y2="310"/>
</g>
<g fill="#07101e" stroke="#101c2c" stroke-width="1">
  <circle cx="20" cy="100" r="5"/> <circle cx="20" cy="145" r="5"/>
  <circle cx="20" cy="195" r="5"/> <circle cx="20" cy="245" r="5"/>
  <circle cx="20" cy="295" r="5"/>
</g>

<!-- O'ng ustun -->
<rect x="444" y="76" width="30" height="234" rx="4"
  fill="url(#cl_frame)" stroke="#0c1828" stroke-width="2.2"/>
<g stroke="#121e2e" stroke-width="1.5" opacity="0.55">
  <line x1="444" y1="110" x2="474" y2="150"/> <line x1="474" y1="110" x2="444" y2="150"/>
  <line x1="444" y1="165" x2="474" y2="205"/> <line x1="474" y1="165" x2="444" y2="205"/>
  <line x1="444" y1="222" x2="474" y2="262"/> <line x1="474" y1="222" x2="444" y2="262"/>
  <line x1="444" y1="278" x2="474" y2="310"/> <line x1="474" y1="278" x2="444" y2="310"/>
</g>
<g fill="#07101e" stroke="#101c2c" stroke-width="1">
  <circle cx="459" cy="100" r="5"/> <circle cx="459" cy="145" r="5"/>
  <circle cx="459" cy="195" r="5"/> <circle cx="459" cy="245" r="5"/>
  <circle cx="459" cy="295" r="5"/>
</g>

<!-- ============================================================
     MOTOR va REDUKTOR TIZIMI
     ============================================================ -->
<!-- Asosiy motor korpusi -->
<rect x="0" y="376" width="118" height="104" rx="5"
  fill="url(#cl_motor)" stroke="#0e1828" stroke-width="2"/>
<!-- Qovurg'alar -->
<g stroke="#0c1220" stroke-width="1.5" fill="#080c18">
  <rect x="4"  y="384" width="110" height="6" rx="1"/>
  <rect x="4"  y="394" width="110" height="6" rx="1"/>
  <rect x="4"  y="404" width="110" height="6" rx="1"/>
  <rect x="4"  y="414" width="110" height="6" rx="1"/>
  <rect x="4"  y="424" width="110" height="6" rx="1"/>
  <rect x="4"  y="434" width="110" height="6" rx="1"/>
  <rect x="4"  y="444" width="110" height="6" rx="1"/>
  <rect x="4"  y="454" width="110" height="6" rx="1"/>
  <rect x="4"  y="464" width="110" height="6" rx="1"/>
  <rect x="4"  y="472" width="110" height="6" rx="1"/>
</g>
<!-- Motor markazi -->
<circle cx="59" cy="428" r="34" fill="#060c18" stroke="#101828" stroke-width="2"/>
<circle cx="59" cy="428" r="25" fill="#0a1420" stroke="#162030" stroke-width="1.8">
  <animateTransform attributeName="transform" type="rotate" from="0 59 428" to="360 59 428" dur="1.5s" repeatCount="indefinite"/>
</circle>
<circle cx="59" cy="428" r="12" fill="#060e18" stroke="#101828" stroke-width="1.2"/>
<circle cx="59" cy="428" r="5"  fill="#0e1828" stroke="#1a2838" stroke-width="1"/>
<!-- Terminal blok -->
<rect x="6"  y="376" width="72" height="14" rx="3" fill="#0c1828" stroke="#1a2838" stroke-width="1.2"/>
<g fill="#1e4060">
  <circle cx="14"  cy="383" r="3.5"/> <circle cx="24"  cy="383" r="3.5"/>
  <circle cx="34"  cy="383" r="3.5"/> <circle cx="44"  cy="383" r="3.5"/>
  <circle cx="54"  cy="383" r="3.5"/>
</g>

<!-- Reduktor -->
<rect x="118" y="392" width="52" height="72" rx="4"
  fill="#0a1828" stroke="#162838" stroke-width="1.5"/>
<rect x="122" y="396" width="44" height="64" rx="3"
  fill="#060e18" stroke="#101828" stroke-width="1"/>
<!-- Reduktor g'ildiraklari -->
<circle cx="144" cy="418" r="18" fill="#060c18" stroke="#122030" stroke-width="1.5"/>
<circle cx="144" cy="418" r="12" fill="#0a1420" stroke="#182838" stroke-width="1.2">
  <animateTransform attributeName="transform" type="rotate" from="0 144 418" to="360 144 418" dur="1.5s" repeatCount="indefinite"/>
</circle>
<circle cx="144" cy="418" r="6" fill="#081018" stroke="#101828" stroke-width="1"/>
<circle cx="144" cy="442" r="13" fill="#060c18" stroke="#122030" stroke-width="1.5"/>
<circle cx="144" cy="442" r="8" fill="#0a1420" stroke="#182838" stroke-width="1.2">
  <animateTransform attributeName="transform" type="rotate" from="0 144 442" to="-360 144 442" dur="1.0s" repeatCount="indefinite"/>
</circle>
<!-- Val ulanish -->
<rect x="168" y="410" width="42" height="14" rx="7"
  fill="#102030" stroke="#1e2e40" stroke-width="1.5"/>

<!-- ============================================================
     QALINLIK O'LCHAGICH (thickness gauge) — ingichkaga xos
     ============================================================ -->
<!-- X-ray qalinlik o'lchagich korpusi -->
<rect x="196" y="320" width="88" height="56" rx="5"
  fill="#0a1428" stroke="#162030" stroke-width="1.8"/>
<!-- O'lchagich emitter/detector -->
<rect x="200" y="324" width="36" height="18" rx="3"
  fill="#0c1e30" stroke="#1a2e44" stroke-width="1.2"/>
<rect x="244" y="324" width="36" height="18" rx="3"
  fill="#0c1e30" stroke="#1a2e44" stroke-width="1.2"/>
<!-- X-ray nuri (metall orqali) -->
<line x1="218" y1="333" x2="262" y2="333" stroke="#00aaff" stroke-width="1.5" opacity="0.5" stroke-dasharray="4,3">
  <animate attributeName="opacity" values="0.5;0.1;0.5" dur="0.6s" repeatCount="indefinite"/>
</line>
<!-- O'lchov ko'rsatgich -->
<rect x="200" y="346" width="80" height="26" rx="3"
  fill="#040c18" stroke="#0e2030" stroke-width="1.2"/>
<text x="240" y="358" text-anchor="middle" font-family="monospace" font-size="8" fill="#00d4ff">1.60 mm</text>
<text x="240" y="368" text-anchor="middle" font-family="monospace" font-size="6" fill="#1a4060">QALINLIK</text>
<!-- Ulanish quvuri -->
<line x1="240" y1="376" x2="240" y2="393" stroke="#162030" stroke-width="3"/>

<!-- ============================================================
     YOG'LASH BAKI va NASOSI
     ============================================================ -->
<rect x="338" y="380" width="106" height="90" rx="4"
  fill="#0a1428" stroke="#162030" stroke-width="1.8"/>
<!-- Bak qovurg'alar -->
<g stroke="#0e1828" stroke-width="1.2" fill="#080c18">
  <rect x="342" y="388" width="98" height="5" rx="1"/>
  <rect x="342" y="397" width="98" height="5" rx="1"/>
  <rect x="342" y="406" width="98" height="5" rx="1"/>
  <rect x="342" y="415" width="98" height="5" rx="1"/>
  <rect x="342" y="424" width="98" height="5" rx="1"/>
  <rect x="342" y="433" width="98" height="5" rx="1"/>
  <rect x="342" y="442" width="98" height="5" rx="1"/>
  <rect x="342" y="451" width="98" height="5" rx="1"/>
  <rect x="342" y="460" width="98" height="5" rx="1"/>
</g>
<!-- Bak ichidagi emulsiya ko'rinishi -->
<rect x="344" y="440" width="94" height="28" rx="2"
  fill="#0a2030" stroke="#162838" stroke-width="1"/>
<ellipse cx="391" cy="440" rx="47" ry="4" fill="#1a4060" opacity="0.5"/>
<!-- Moy pompa markazi -->
<circle cx="391" cy="428" r="20" fill="#060e18" stroke="#102030" stroke-width="1.5"/>
<circle cx="391" cy="428" r="13" fill="#0a1420" stroke="#162030" stroke-width="1.2">
  <animateTransform attributeName="transform" type="rotate" from="0 391 428" to="360 391 428" dur="2.5s" repeatCount="indefinite"/>
</circle>
<circle cx="391" cy="428" r="6"  fill="#081018" stroke="#101828" stroke-width="1"/>
<!-- Yog' quvurlari -->
<path d="M338 400 Q320 400 316 388 Q312 376 316 364"
  fill="none" stroke="#162030" stroke-width="5" stroke-linecap="round"/>
<path d="M338 400 Q320 400 316 388 Q312 376 316 364"
  fill="none" stroke="#1e3040" stroke-width="2.5" stroke-linecap="round"/>
<path d="M338 418 Q330 418 320 408 Q310 398 304 388"
  fill="none" stroke="#162030" stroke-width="4" stroke-linecap="round"/>

<!-- ============================================================
     BOSHQARUV PANELI
     ============================================================ -->
<rect x="170" y="376" width="164" height="104" rx="4"
  fill="#0a1428" stroke="#162030" stroke-width="1.8"/>
<!-- Asosiy ekran -->
<rect x="174" y="382" width="100" height="62" rx="3"
  fill="#030c14" stroke="#0e2030" stroke-width="1.5"/>
<rect x="176" y="384" width="96" height="58" rx="2"
  fill="#020810" stroke="#081828" stroke-width="1"/>
<g font-family="'Courier New',monospace" font-size="6.5" fill="#00cc88">
  <text x="178" y="396">HOLAT  : FAOL</text>
  <text x="178" y="406">BOSIM  : 220 t</text>
  <text x="178" y="416">TEZLIK : 18 m/s</text>
  <text x="178" y="426">QALINL : 1.60mm</text>
  <text x="178" y="436">REJA   : 1.55mm</text>
</g>
<rect x="266" y="436" width="5" height="7" fill="#00cc88" opacity="0.9">
  <animate attributeName="opacity" values="0.9;0;0.9" dur="0.8s" repeatCount="indefinite"/>
</rect>
<!-- O'ng panel tugmalari -->
<rect x="280" y="382" width="50" height="62" rx="3" fill="#0c1828" stroke="#182030" stroke-width="1"/>
<g>
  <rect x="282" y="386" width="46" height="11" rx="2" fill="#122a18" stroke="#1e4024" stroke-width="1"/>
  <text x="305" y="395" text-anchor="middle" font-family="monospace" font-size="6" fill="#44aa55">START</text>
  <rect x="282" y="401" width="46" height="11" rx="2" fill="#2a1212" stroke="#401818" stroke-width="1"/>
  <text x="305" y="410" text-anchor="middle" font-family="monospace" font-size="6" fill="#aa4444">STOP</text>
  <rect x="282" y="416" width="46" height="11" rx="2" fill="#1a1a10" stroke="#2e2e18" stroke-width="1"/>
  <text x="305" y="425" text-anchor="middle" font-family="monospace" font-size="6" fill="#aaaa44">RESET</text>
  <rect x="282" y="431" width="46" height="11" rx="2" fill="#0e1828" stroke="#182838" stroke-width="1"/>
  <text x="305" y="440" text-anchor="middle" font-family="monospace" font-size="6" fill="#2a4a60">AUTO</text>
</g>
<!-- Qalinlik rostlagich knob -->
<rect x="174" y="448" width="70" height="26" rx="3" fill="#0c1828" stroke="#182030" stroke-width="1"/>
<rect x="178" y="452" width="48" height="8" rx="2" fill="#060e18" stroke="#0e1828" stroke-width="0.8"/>
<rect x="198" y="451" width="12" height="10" rx="2" fill="#1a2e40" stroke="#243848" stroke-width="1"/>
<text x="209" y="470" text-anchor="middle" font-family="monospace" font-size="5.5" fill="#2a3e52">QALINLIK</text>
<!-- Chiroqlar -->
<g>
  <circle cx="254" cy="454" r="5" fill="#00cc00" opacity="0.9" filter="url(#cl_blur2)">
    <animate attributeName="opacity" values="0.9;0.4;0.9" dur="2s" repeatCount="indefinite"/>
  </circle>
  <text x="264" y="458" font-family="monospace" font-size="5.5" fill="#2a5030">FAOL</text>
  <circle cx="254" cy="467" r="5" fill="#ff9900" opacity="0.5"/>
  <text x="264" y="471" font-family="monospace" font-size="5.5" fill="#503020">YUKL.</text>
  <circle cx="254" cy="480" r="5" fill="#cc0000" opacity="0.35"/>
  <text x="264" y="484" font-family="monospace" font-size="5.5" fill="#402020">XATO</text>
</g>

<!-- ============================================================
     ZAMIN PLITASI
     ============================================================ -->
<rect x="16"  y="494" width="448" height="18" rx="4" fill="#07090f" stroke="#0e1220" stroke-width="1.5"/>
<rect x="4"   y="510" width="472" height="12" rx="3" fill="#050710" stroke="#0a0f18" stroke-width="1"/>
<g fill="#090c18" stroke="#131c28" stroke-width="1">
  <rect x="28"  y="490" width="14" height="22" rx="3"/>
  <rect x="70"  y="490" width="14" height="22" rx="3"/>
  <rect x="226" y="490" width="14" height="22" rx="3"/>
  <rect x="396" y="490" width="14" height="22" rx="3"/>
  <rect x="438" y="490" width="14" height="22" rx="3"/>
</g>

<!-- ============================================================
     MATN
     ============================================================ -->
<text x="240" y="552" text-anchor="middle" font-family="'Courier New',monospace"
  font-size="13" font-weight="bold" fill="#1e3855" letter-spacing="4">INGICHKA LIST</text>
<text x="240" y="570" text-anchor="middle" font-family="'Courier New',monospace"
  font-size="13" font-weight="bold" fill="#1e3855" letter-spacing="4">PROKATI</text>
<text x="240" y="588" text-anchor="middle" font-family="'Courier New',monospace"
  font-size="9" fill="#162a40" letter-spacing="3">COLD ROLLING MILL · CLM-1600</text>
</svg>
